<mxfile host="65bd71144e">
    <diagram id="yLieOz2p0mrmGI7x2DwJ" name="Page-1">
        <mxGraphModel dx="2402" dy="1358" grid="0" gridSize="10" guides="1" tooltips="1" connect="1" arrows="1" fold="1" page="0" pageScale="1" pageWidth="827" pageHeight="1169" background="#FFFFFF" math="0" shadow="0">
            <root>
                <mxCell id="0"/>
                <mxCell id="1" parent="0"/>
                <mxCell id="3" value="Organization" style="shape=table;startSize=30;container=1;collapsible=1;childLayout=tableLayout;fixedRows=1;rowLines=0;fontStyle=1;align=center;resizeLast=1;labelBorderColor=none;fillColor=none;fontColor=#1D3557;strokeColor=#457B9D;" parent="1" vertex="1">
                    <mxGeometry x="287" y="126" width="180" height="130" as="geometry"/>
                </mxCell>
                <mxCell id="4" value="" style="shape=partialRectangle;collapsible=0;dropTarget=0;pointerEvents=0;top=0;left=0;bottom=1;right=0;points=[[0,0.5],[1,0.5]];portConstraint=eastwest;labelBorderColor=none;fillColor=none;fontColor=#1D3557;strokeColor=#457B9D;" parent="3" vertex="1">
                    <mxGeometry y="30" width="180" height="30" as="geometry"/>
                </mxCell>
                <mxCell id="5" value="PK" style="shape=partialRectangle;connectable=0;top=0;left=0;bottom=0;right=0;fontStyle=1;overflow=hidden;labelBorderColor=none;fillColor=none;fontColor=#1D3557;strokeColor=#457B9D;" parent="4" vertex="1">
                    <mxGeometry width="30" height="30" as="geometry"/>
                </mxCell>
                <mxCell id="6" value="UniqueID" style="shape=partialRectangle;connectable=0;top=0;left=0;bottom=0;right=0;align=left;spacingLeft=6;fontStyle=5;overflow=hidden;labelBorderColor=none;fillColor=none;fontColor=#1D3557;strokeColor=#457B9D;" parent="4" vertex="1">
                    <mxGeometry x="30" width="150" height="30" as="geometry"/>
                </mxCell>
                <mxCell id="7" value="" style="shape=partialRectangle;collapsible=0;dropTarget=0;pointerEvents=0;top=0;left=0;bottom=0;right=0;points=[[0,0.5],[1,0.5]];portConstraint=eastwest;labelBorderColor=none;fillColor=none;fontColor=#1D3557;strokeColor=#457B9D;" parent="3" vertex="1">
                    <mxGeometry y="60" width="180" height="30" as="geometry"/>
                </mxCell>
                <mxCell id="8" value="" style="shape=partialRectangle;connectable=0;top=0;left=0;bottom=0;right=0;editable=1;overflow=hidden;labelBorderColor=none;fillColor=none;fontColor=#1D3557;strokeColor=#457B9D;" parent="7" vertex="1">
                    <mxGeometry width="30" height="30" as="geometry"/>
                </mxCell>
                <mxCell id="9" value="Name" style="shape=partialRectangle;connectable=0;top=0;left=0;bottom=0;right=0;align=left;spacingLeft=6;overflow=hidden;labelBorderColor=none;fillColor=none;fontColor=#1D3557;strokeColor=#457B9D;" parent="7" vertex="1">
                    <mxGeometry x="30" width="150" height="30" as="geometry"/>
                </mxCell>
                <mxCell id="424" value="" style="shape=partialRectangle;collapsible=0;dropTarget=0;pointerEvents=0;fillColor=none;top=0;left=0;bottom=0;right=0;points=[[0,0.5],[1,0.5]];portConstraint=eastwest;rounded=0;sketch=0;fontColor=#1D3557;strokeColor=#457B9D;" parent="3" vertex="1">
                    <mxGeometry y="90" width="180" height="30" as="geometry"/>
                </mxCell>
                <mxCell id="425" value="" style="shape=partialRectangle;connectable=0;fillColor=none;top=0;left=0;bottom=0;right=0;editable=1;overflow=hidden;strokeColor=#457B9D;fontColor=#1D3557;" parent="424" vertex="1">
                    <mxGeometry width="30" height="30" as="geometry"/>
                </mxCell>
                <mxCell id="426" value="AvatarUrl" style="shape=partialRectangle;connectable=0;fillColor=none;top=0;left=0;bottom=0;right=0;align=left;spacingLeft=6;overflow=hidden;strokeColor=#457B9D;fontColor=#1D3557;" parent="424" vertex="1">
                    <mxGeometry x="30" width="150" height="30" as="geometry"/>
                </mxCell>
                <mxCell id="33" value="Team" style="shape=table;startSize=30;container=1;collapsible=1;childLayout=tableLayout;fixedRows=1;rowLines=0;fontStyle=1;align=center;resizeLast=1;labelBorderColor=none;fillColor=none;fontColor=#1D3557;strokeColor=#457B9D;" parent="1" vertex="1">
                    <mxGeometry x="-2" y="-65" width="180" height="130" as="geometry"/>
                </mxCell>
                <mxCell id="34" value="" style="shape=partialRectangle;collapsible=0;dropTarget=0;pointerEvents=0;top=0;left=0;bottom=1;right=0;points=[[0,0.5],[1,0.5]];portConstraint=eastwest;labelBorderColor=none;fillColor=none;fontColor=#1D3557;strokeColor=#457B9D;" parent="33" vertex="1">
                    <mxGeometry y="30" width="180" height="30" as="geometry"/>
                </mxCell>
                <mxCell id="35" value="PK" style="shape=partialRectangle;connectable=0;top=0;left=0;bottom=0;right=0;fontStyle=1;overflow=hidden;labelBorderColor=none;fillColor=none;fontColor=#1D3557;strokeColor=#457B9D;" parent="34" vertex="1">
                    <mxGeometry width="30" height="30" as="geometry"/>
                </mxCell>
                <mxCell id="36" value="UniqueID" style="shape=partialRectangle;connectable=0;top=0;left=0;bottom=0;right=0;align=left;spacingLeft=6;fontStyle=5;overflow=hidden;labelBorderColor=none;fillColor=none;fontColor=#1D3557;strokeColor=#457B9D;" parent="34" vertex="1">
                    <mxGeometry x="30" width="150" height="30" as="geometry"/>
                </mxCell>
                <mxCell id="79" value="" style="shape=partialRectangle;collapsible=0;dropTarget=0;pointerEvents=0;top=0;left=0;bottom=0;right=0;points=[[0,0.5],[1,0.5]];portConstraint=eastwest;labelBorderColor=none;fillColor=none;fontColor=#1D3557;strokeColor=#457B9D;" parent="33" vertex="1">
                    <mxGeometry y="60" width="180" height="30" as="geometry"/>
                </mxCell>
                <mxCell id="80" value="FK" style="shape=partialRectangle;connectable=0;top=0;left=0;bottom=0;right=0;fontStyle=0;overflow=hidden;labelBorderColor=none;fillColor=none;fontColor=#1D3557;strokeColor=#457B9D;" parent="79" vertex="1">
                    <mxGeometry width="30" height="30" as="geometry"/>
                </mxCell>
                <mxCell id="81" value="OrganizationID" style="shape=partialRectangle;connectable=0;top=0;left=0;bottom=0;right=0;align=left;spacingLeft=6;fontStyle=0;overflow=hidden;labelBorderColor=none;fillColor=none;fontColor=#1D3557;strokeColor=#457B9D;" parent="79" vertex="1">
                    <mxGeometry x="30" width="150" height="30" as="geometry"/>
                </mxCell>
                <mxCell id="37" value="" style="shape=partialRectangle;collapsible=0;dropTarget=0;pointerEvents=0;top=0;left=0;bottom=0;right=0;points=[[0,0.5],[1,0.5]];portConstraint=eastwest;labelBorderColor=none;fillColor=none;fontColor=#1D3557;strokeColor=#457B9D;" parent="33" vertex="1">
                    <mxGeometry y="90" width="180" height="30" as="geometry"/>
                </mxCell>
                <mxCell id="38" value="" style="shape=partialRectangle;connectable=0;top=0;left=0;bottom=0;right=0;editable=1;overflow=hidden;labelBorderColor=none;fillColor=none;fontColor=#1D3557;strokeColor=#457B9D;" parent="37" vertex="1">
                    <mxGeometry width="30" height="30" as="geometry"/>
                </mxCell>
                <mxCell id="39" value="Name" style="shape=partialRectangle;connectable=0;top=0;left=0;bottom=0;right=0;align=left;spacingLeft=6;overflow=hidden;labelBorderColor=none;fillColor=none;fontColor=#1D3557;strokeColor=#457B9D;" parent="37" vertex="1">
                    <mxGeometry x="30" width="150" height="30" as="geometry"/>
                </mxCell>
                <mxCell id="46" value="Member" style="shape=table;startSize=30;container=1;collapsible=1;childLayout=tableLayout;fixedRows=1;rowLines=0;fontStyle=1;align=center;resizeLast=1;labelBorderColor=none;fillColor=none;fontColor=#1D3557;strokeColor=#457B9D;" parent="1" vertex="1">
                    <mxGeometry x="8" y="254" width="180" height="160" as="geometry"/>
                </mxCell>
                <mxCell id="47" value="" style="shape=partialRectangle;collapsible=0;dropTarget=0;pointerEvents=0;top=0;left=0;bottom=1;right=0;points=[[0,0.5],[1,0.5]];portConstraint=eastwest;labelBorderColor=none;fillColor=none;fontColor=#1D3557;strokeColor=#457B9D;" parent="46" vertex="1">
                    <mxGeometry y="30" width="180" height="30" as="geometry"/>
                </mxCell>
                <mxCell id="48" value="PK" style="shape=partialRectangle;connectable=0;top=0;left=0;bottom=0;right=0;fontStyle=1;overflow=hidden;labelBorderColor=none;fillColor=none;fontColor=#1D3557;strokeColor=#457B9D;" parent="47" vertex="1">
                    <mxGeometry width="30" height="30" as="geometry"/>
                </mxCell>
                <mxCell id="49" value="UniqueID" style="shape=partialRectangle;connectable=0;top=0;left=0;bottom=0;right=0;align=left;spacingLeft=6;fontStyle=5;overflow=hidden;labelBorderColor=none;fillColor=none;fontColor=#1D3557;strokeColor=#457B9D;" parent="47" vertex="1">
                    <mxGeometry x="30" width="150" height="30" as="geometry"/>
                </mxCell>
                <mxCell id="83" value="" style="shape=partialRectangle;collapsible=0;dropTarget=0;pointerEvents=0;top=0;left=0;bottom=0;right=0;points=[[0,0.5],[1,0.5]];portConstraint=eastwest;labelBorderColor=none;fillColor=none;fontColor=#1D3557;strokeColor=#457B9D;" parent="46" vertex="1">
                    <mxGeometry y="60" width="180" height="30" as="geometry"/>
                </mxCell>
                <mxCell id="84" value="FK" style="shape=partialRectangle;connectable=0;top=0;left=0;bottom=0;right=0;fontStyle=0;overflow=hidden;labelBorderColor=none;fillColor=none;fontColor=#1D3557;strokeColor=#457B9D;" parent="83" vertex="1">
                    <mxGeometry width="30" height="30" as="geometry"/>
                </mxCell>
                <mxCell id="85" value="OrganizationID" style="shape=partialRectangle;connectable=0;top=0;left=0;bottom=0;right=0;align=left;spacingLeft=6;fontStyle=0;overflow=hidden;labelBorderColor=none;fillColor=none;fontColor=#1D3557;strokeColor=#457B9D;" parent="83" vertex="1">
                    <mxGeometry x="30" width="150" height="30" as="geometry"/>
                </mxCell>
                <mxCell id="72" value="" style="shape=partialRectangle;collapsible=0;dropTarget=0;pointerEvents=0;top=0;left=0;bottom=0;right=0;points=[[0,0.5],[1,0.5]];portConstraint=eastwest;labelBorderColor=none;fillColor=none;fontColor=#1D3557;strokeColor=#457B9D;" parent="46" vertex="1">
                    <mxGeometry y="90" width="180" height="30" as="geometry"/>
                </mxCell>
                <mxCell id="73" value="FK" style="shape=partialRectangle;connectable=0;top=0;left=0;bottom=0;right=0;fontStyle=0;overflow=hidden;labelBorderColor=none;fillColor=none;fontColor=#1D3557;strokeColor=#457B9D;" parent="72" vertex="1">
                    <mxGeometry width="30" height="30" as="geometry"/>
                </mxCell>
                <mxCell id="74" value="CreatedBy" style="shape=partialRectangle;connectable=0;top=0;left=0;bottom=0;right=0;align=left;spacingLeft=6;fontStyle=0;overflow=hidden;labelBorderColor=none;fillColor=none;fontColor=#1D3557;strokeColor=#457B9D;" parent="72" vertex="1">
                    <mxGeometry x="30" width="150" height="30" as="geometry"/>
                </mxCell>
                <mxCell id="307" value="" style="shape=partialRectangle;collapsible=0;dropTarget=0;pointerEvents=0;top=0;left=0;bottom=0;right=0;points=[[0,0.5],[1,0.5]];portConstraint=eastwest;fillColor=none;fontColor=#1D3557;strokeColor=#457B9D;" parent="46" vertex="1">
                    <mxGeometry y="120" width="180" height="30" as="geometry"/>
                </mxCell>
                <mxCell id="308" value="FK" style="shape=partialRectangle;connectable=0;top=0;left=0;bottom=0;right=0;fontStyle=0;overflow=hidden;fillColor=none;fontColor=#1D3557;strokeColor=#457B9D;" parent="307" vertex="1">
                    <mxGeometry width="30" height="30" as="geometry"/>
                </mxCell>
                <mxCell id="309" value="RoleID" style="shape=partialRectangle;connectable=0;top=0;left=0;bottom=0;right=0;align=left;spacingLeft=6;fontStyle=0;overflow=hidden;fillColor=none;fontColor=#1D3557;strokeColor=#457B9D;" parent="307" vertex="1">
                    <mxGeometry x="30" width="150" height="30" as="geometry"/>
                </mxCell>
                <mxCell id="59" value="User" style="shape=table;startSize=30;container=1;collapsible=1;childLayout=tableLayout;fixedRows=1;rowLines=0;fontStyle=1;align=center;resizeLast=1;labelBorderColor=none;fillColor=none;fontColor=#1D3557;strokeColor=#457B9D;" parent="1" vertex="1">
                    <mxGeometry x="-242" y="299" width="180" height="250" as="geometry"/>
                </mxCell>
                <mxCell id="60" value="" style="shape=partialRectangle;collapsible=0;dropTarget=0;pointerEvents=0;top=0;left=0;bottom=1;right=0;points=[[0,0.5],[1,0.5]];portConstraint=eastwest;labelBorderColor=none;fillColor=none;fontColor=#1D3557;strokeColor=#457B9D;" parent="59" vertex="1">
                    <mxGeometry y="30" width="180" height="30" as="geometry"/>
                </mxCell>
                <mxCell id="61" value="PK" style="shape=partialRectangle;connectable=0;top=0;left=0;bottom=0;right=0;fontStyle=1;overflow=hidden;labelBorderColor=none;fillColor=none;fontColor=#1D3557;strokeColor=#457B9D;" parent="60" vertex="1">
                    <mxGeometry width="30" height="30" as="geometry"/>
                </mxCell>
                <mxCell id="62" value="UniqueID" style="shape=partialRectangle;connectable=0;top=0;left=0;bottom=0;right=0;align=left;spacingLeft=6;fontStyle=5;overflow=hidden;labelBorderColor=none;fillColor=none;fontColor=#1D3557;strokeColor=#457B9D;" parent="60" vertex="1">
                    <mxGeometry x="30" width="150" height="30" as="geometry"/>
                </mxCell>
                <mxCell id="63" value="" style="shape=partialRectangle;collapsible=0;dropTarget=0;pointerEvents=0;top=0;left=0;bottom=0;right=0;points=[[0,0.5],[1,0.5]];portConstraint=eastwest;labelBorderColor=none;fillColor=none;fontColor=#1D3557;strokeColor=#457B9D;" parent="59" vertex="1">
                    <mxGeometry y="60" width="180" height="30" as="geometry"/>
                </mxCell>
                <mxCell id="64" value="" style="shape=partialRectangle;connectable=0;top=0;left=0;bottom=0;right=0;editable=1;overflow=hidden;labelBorderColor=none;fillColor=none;fontColor=#1D3557;strokeColor=#457B9D;" parent="63" vertex="1">
                    <mxGeometry width="30" height="30" as="geometry"/>
                </mxCell>
                <mxCell id="65" value="FirstName" style="shape=partialRectangle;connectable=0;top=0;left=0;bottom=0;right=0;align=left;spacingLeft=6;overflow=hidden;labelBorderColor=none;fillColor=none;fontColor=#1D3557;strokeColor=#457B9D;" parent="63" vertex="1">
                    <mxGeometry x="30" width="150" height="30" as="geometry"/>
                </mxCell>
                <mxCell id="66" value="" style="shape=partialRectangle;collapsible=0;dropTarget=0;pointerEvents=0;top=0;left=0;bottom=0;right=0;points=[[0,0.5],[1,0.5]];portConstraint=eastwest;labelBorderColor=none;fillColor=none;fontColor=#1D3557;strokeColor=#457B9D;" parent="59" vertex="1">
                    <mxGeometry y="90" width="180" height="30" as="geometry"/>
                </mxCell>
                <mxCell id="67" value="" style="shape=partialRectangle;connectable=0;top=0;left=0;bottom=0;right=0;editable=1;overflow=hidden;labelBorderColor=none;fillColor=none;fontColor=#1D3557;strokeColor=#457B9D;" parent="66" vertex="1">
                    <mxGeometry width="30" height="30" as="geometry"/>
                </mxCell>
                <mxCell id="68" value="LastName" style="shape=partialRectangle;connectable=0;top=0;left=0;bottom=0;right=0;align=left;spacingLeft=6;overflow=hidden;labelBorderColor=none;fillColor=none;fontColor=#1D3557;strokeColor=#457B9D;" parent="66" vertex="1">
                    <mxGeometry x="30" width="150" height="30" as="geometry"/>
                </mxCell>
                <mxCell id="69" value="" style="shape=partialRectangle;collapsible=0;dropTarget=0;pointerEvents=0;top=0;left=0;bottom=0;right=0;points=[[0,0.5],[1,0.5]];portConstraint=eastwest;labelBorderColor=none;fillColor=none;fontColor=#1D3557;strokeColor=#457B9D;" parent="59" vertex="1">
                    <mxGeometry y="120" width="180" height="30" as="geometry"/>
                </mxCell>
                <mxCell id="70" value="" style="shape=partialRectangle;connectable=0;top=0;left=0;bottom=0;right=0;editable=1;overflow=hidden;labelBorderColor=none;fillColor=none;fontColor=#1D3557;strokeColor=#457B9D;" parent="69" vertex="1">
                    <mxGeometry width="30" height="30" as="geometry"/>
                </mxCell>
                <mxCell id="71" value="Email" style="shape=partialRectangle;connectable=0;top=0;left=0;bottom=0;right=0;align=left;spacingLeft=6;overflow=hidden;labelBorderColor=none;fillColor=none;fontColor=#1D3557;strokeColor=#457B9D;" parent="69" vertex="1">
                    <mxGeometry x="30" width="150" height="30" as="geometry"/>
                </mxCell>
                <mxCell id="311" value="" style="shape=partialRectangle;collapsible=0;dropTarget=0;pointerEvents=0;top=0;left=0;bottom=0;right=0;points=[[0,0.5],[1,0.5]];portConstraint=eastwest;fillColor=none;fontColor=#1D3557;strokeColor=#457B9D;" parent="59" vertex="1">
                    <mxGeometry y="150" width="180" height="30" as="geometry"/>
                </mxCell>
                <mxCell id="312" value="" style="shape=partialRectangle;connectable=0;top=0;left=0;bottom=0;right=0;editable=1;overflow=hidden;fillColor=none;fontColor=#1D3557;strokeColor=#457B9D;" parent="311" vertex="1">
                    <mxGeometry width="30" height="30" as="geometry"/>
                </mxCell>
                <mxCell id="313" value="PasswordHash" style="shape=partialRectangle;connectable=0;top=0;left=0;bottom=0;right=0;align=left;spacingLeft=6;overflow=hidden;fillColor=none;fontColor=#1D3557;strokeColor=#457B9D;" parent="311" vertex="1">
                    <mxGeometry x="30" width="150" height="30" as="geometry"/>
                </mxCell>
                <mxCell id="318" value="" style="shape=partialRectangle;collapsible=0;dropTarget=0;pointerEvents=0;top=0;left=0;bottom=0;right=0;points=[[0,0.5],[1,0.5]];portConstraint=eastwest;fillColor=none;fontColor=#1D3557;strokeColor=#457B9D;" parent="59" vertex="1">
                    <mxGeometry y="180" width="180" height="30" as="geometry"/>
                </mxCell>
                <mxCell id="319" value="" style="shape=partialRectangle;connectable=0;top=0;left=0;bottom=0;right=0;editable=1;overflow=hidden;fillColor=none;fontColor=#1D3557;strokeColor=#457B9D;" parent="318" vertex="1">
                    <mxGeometry width="30" height="30" as="geometry"/>
                </mxCell>
                <mxCell id="320" value="RegisteredAt" style="shape=partialRectangle;connectable=0;top=0;left=0;bottom=0;right=0;align=left;spacingLeft=6;overflow=hidden;fillColor=none;fontColor=#1D3557;strokeColor=#457B9D;" parent="318" vertex="1">
                    <mxGeometry x="30" width="150" height="30" as="geometry"/>
                </mxCell>
                <mxCell id="345" value="" style="shape=partialRectangle;collapsible=0;dropTarget=0;pointerEvents=0;top=0;left=0;bottom=0;right=0;points=[[0,0.5],[1,0.5]];portConstraint=eastwest;fillColor=none;fontColor=#1D3557;strokeColor=#457B9D;" parent="59" vertex="1">
                    <mxGeometry y="210" width="180" height="30" as="geometry"/>
                </mxCell>
                <mxCell id="346" value="" style="shape=partialRectangle;connectable=0;top=0;left=0;bottom=0;right=0;editable=1;overflow=hidden;fillColor=none;fontColor=#1D3557;strokeColor=#457B9D;" parent="345" vertex="1">
                    <mxGeometry width="30" height="30" as="geometry"/>
                </mxCell>
                <mxCell id="347" value="AvatarUrl" style="shape=partialRectangle;connectable=0;top=0;left=0;bottom=0;right=0;align=left;spacingLeft=6;overflow=hidden;fillColor=none;fontColor=#1D3557;strokeColor=#457B9D;" parent="345" vertex="1">
                    <mxGeometry x="30" width="150" height="30" as="geometry"/>
                </mxCell>
                <mxCell id="94" value="" style="edgeStyle=orthogonalEdgeStyle;fontSize=12;html=1;endArrow=ERzeroToMany;exitX=0;exitY=0.5;exitDx=0;exitDy=0;entryX=1;entryY=0.5;entryDx=0;entryDy=0;labelBorderColor=none;fillColor=none;fontColor=#1D3557;strokeColor=#457B9D;labelBackgroundColor=#F1FAEE;startArrow=ERone;startFill=0;endFill=1;" parent="1" source="4" target="79" edge="1">
                    <mxGeometry width="100" height="100" relative="1" as="geometry">
                        <mxPoint x="186" y="361" as="sourcePoint"/>
                        <mxPoint x="299" y="93" as="targetPoint"/>
                        <Array as="points">
                            <mxPoint x="231" y="171"/>
                            <mxPoint x="231" y="10"/>
                        </Array>
                    </mxGeometry>
                </mxCell>
                <mxCell id="96" value="" style="edgeStyle=orthogonalEdgeStyle;fontSize=12;html=1;endArrow=ERoneToMany;entryX=1;entryY=0.5;entryDx=0;entryDy=0;exitX=0;exitY=0.5;exitDx=0;exitDy=0;labelBorderColor=none;fillColor=none;fontColor=#1D3557;strokeColor=#457B9D;labelBackgroundColor=#F1FAEE;startArrow=ERone;startFill=0;" parent="1" source="4" target="83" edge="1">
                    <mxGeometry width="100" height="100" relative="1" as="geometry">
                        <mxPoint x="176" y="372" as="sourcePoint"/>
                        <mxPoint x="276" y="272" as="targetPoint"/>
                        <Array as="points">
                            <mxPoint x="232" y="171"/>
                            <mxPoint x="232" y="329"/>
                        </Array>
                    </mxGeometry>
                </mxCell>
                <mxCell id="98" value="" style="edgeStyle=entityRelationEdgeStyle;fontSize=12;html=1;endArrow=ERzeroToMany;exitX=1;exitY=0.5;exitDx=0;exitDy=0;entryX=0;entryY=0.5;entryDx=0;entryDy=0;labelBorderColor=none;fillColor=none;fontColor=#1D3557;strokeColor=#457B9D;labelBackgroundColor=#F1FAEE;startArrow=ERmandOne;startFill=0;endFill=1;" parent="1" source="60" target="72" edge="1">
                    <mxGeometry width="100" height="100" relative="1" as="geometry">
                        <mxPoint x="165" y="304" as="sourcePoint"/>
                        <mxPoint x="265" y="204" as="targetPoint"/>
                    </mxGeometry>
                </mxCell>
                <mxCell id="127" value="TeamMember" style="shape=table;startSize=30;container=1;collapsible=1;childLayout=tableLayout;fixedRows=1;rowLines=0;fontStyle=1;align=center;resizeLast=1;labelBorderColor=none;fillColor=none;fontColor=#1D3557;strokeColor=#457B9D;" parent="1" vertex="1">
                    <mxGeometry x="-242" y="74" width="180" height="130" as="geometry"/>
                </mxCell>
                <mxCell id="415" value="" style="shape=partialRectangle;collapsible=0;dropTarget=0;pointerEvents=0;fillColor=none;top=0;left=0;bottom=1;right=0;points=[[0,0.5],[1,0.5]];portConstraint=eastwest;strokeColor=#457B9D;fontColor=#1D3557;" parent="127" vertex="1">
                    <mxGeometry y="30" width="180" height="30" as="geometry"/>
                </mxCell>
                <mxCell id="416" value="PK" style="shape=partialRectangle;connectable=0;fillColor=none;top=0;left=0;bottom=0;right=0;fontStyle=1;overflow=hidden;strokeColor=#457B9D;fontColor=#1D3557;" parent="415" vertex="1">
                    <mxGeometry width="29.92853655133948" height="30" as="geometry"/>
                </mxCell>
                <mxCell id="417" value="UniqueID" style="shape=partialRectangle;connectable=0;fillColor=none;top=0;left=0;bottom=0;right=0;align=left;spacingLeft=6;fontStyle=5;overflow=hidden;strokeColor=#457B9D;fontColor=#1D3557;" parent="415" vertex="1">
                    <mxGeometry x="29.92853655133948" width="150.07146344866052" height="30" as="geometry"/>
                </mxCell>
                <mxCell id="128" value="" style="shape=partialRectangle;collapsible=0;dropTarget=0;pointerEvents=0;top=0;left=0;bottom=0;right=0;points=[[0,0.5],[1,0.5]];portConstraint=eastwest;labelBorderColor=none;fillColor=none;fontColor=#1D3557;strokeColor=#457B9D;" parent="127" vertex="1">
                    <mxGeometry y="60" width="180" height="30" as="geometry"/>
                </mxCell>
                <mxCell id="129" value="FK" style="shape=partialRectangle;connectable=0;top=0;left=0;bottom=0;right=0;fontStyle=1;overflow=hidden;labelBorderColor=none;fillColor=none;fontColor=#1D3557;strokeColor=#457B9D;" parent="128" vertex="1">
                    <mxGeometry width="29.92853655133948" height="30" as="geometry"/>
                </mxCell>
                <mxCell id="130" value="TeamID" style="shape=partialRectangle;connectable=0;top=0;left=0;bottom=0;right=0;align=left;spacingLeft=6;fontStyle=5;overflow=hidden;labelBorderColor=none;fillColor=none;fontColor=#1D3557;strokeColor=#457B9D;" parent="128" vertex="1">
                    <mxGeometry x="29.92853655133948" width="150.07146344866052" height="30" as="geometry"/>
                </mxCell>
                <mxCell id="131" value="" style="shape=partialRectangle;collapsible=0;dropTarget=0;pointerEvents=0;top=0;left=0;bottom=1;right=0;points=[[0,0.5],[1,0.5]];portConstraint=eastwest;labelBorderColor=none;fillColor=none;fontColor=#1D3557;strokeColor=none;" parent="127" vertex="1">
                    <mxGeometry y="90" width="180" height="30" as="geometry"/>
                </mxCell>
                <mxCell id="132" value="FK" style="shape=partialRectangle;connectable=0;top=0;left=0;bottom=0;right=0;fontStyle=1;overflow=hidden;labelBorderColor=none;fillColor=none;fontColor=#1D3557;strokeColor=#457B9D;" parent="131" vertex="1">
                    <mxGeometry width="29.92853655133948" height="30" as="geometry"/>
                </mxCell>
                <mxCell id="133" value="MemberID" style="shape=partialRectangle;connectable=0;top=0;left=0;bottom=0;right=0;align=left;spacingLeft=6;fontStyle=5;overflow=hidden;labelBorderColor=none;fillColor=none;fontColor=#1D3557;strokeColor=#457B9D;" parent="131" vertex="1">
                    <mxGeometry x="29.92853655133948" width="150.07146344866052" height="30" as="geometry"/>
                </mxCell>
                <mxCell id="140" value="" style="edgeStyle=orthogonalEdgeStyle;fontSize=12;html=1;endArrow=ERzeroToMany;entryX=1;entryY=0.5;entryDx=0;entryDy=0;exitX=0;exitY=0.5;exitDx=0;exitDy=0;labelBorderColor=none;fillColor=none;fontColor=#1D3557;strokeColor=#457B9D;labelBackgroundColor=#F1FAEE;startArrow=ERone;startFill=0;endFill=1;" parent="1" source="47" target="131" edge="1">
                    <mxGeometry width="100" height="100" relative="1" as="geometry">
                        <mxPoint x="-61" y="315" as="sourcePoint"/>
                        <mxPoint x="-9" y="148" as="targetPoint"/>
                        <Array as="points">
                            <mxPoint x="-32" y="299"/>
                            <mxPoint x="-32" y="179"/>
                        </Array>
                    </mxGeometry>
                </mxCell>
                <mxCell id="155" value="" style="edgeStyle=entityRelationEdgeStyle;fontSize=12;html=1;endArrow=ERoneToMany;entryX=1;entryY=0.5;entryDx=0;entryDy=0;labelBorderColor=none;fillColor=none;fontColor=#1D3557;strokeColor=#457B9D;labelBackgroundColor=#F1FAEE;startArrow=ERone;startFill=0;" parent="1" source="34" target="128" edge="1">
                    <mxGeometry width="100" height="100" relative="1" as="geometry">
                        <mxPoint x="37" y="466" as="sourcePoint"/>
                        <mxPoint x="-116" y="305" as="targetPoint"/>
                    </mxGeometry>
                </mxCell>
                <mxCell id="157" value="Environment" style="shape=table;startSize=30;container=1;collapsible=1;childLayout=tableLayout;fixedRows=1;rowLines=0;fontStyle=1;align=center;resizeLast=1;labelBorderColor=none;fillColor=none;fontColor=#1D3557;strokeColor=#457B9D;" parent="1" vertex="1">
                    <mxGeometry x="884" y="-118" width="180" height="130" as="geometry"/>
                </mxCell>
                <mxCell id="158" value="" style="shape=partialRectangle;collapsible=0;dropTarget=0;pointerEvents=0;top=0;left=0;bottom=1;right=0;points=[[0,0.5],[1,0.5]];portConstraint=eastwest;labelBorderColor=none;fillColor=none;fontColor=#1D3557;strokeColor=#457B9D;" parent="157" vertex="1">
                    <mxGeometry y="30" width="180" height="30" as="geometry"/>
                </mxCell>
                <mxCell id="159" value="PK" style="shape=partialRectangle;connectable=0;top=0;left=0;bottom=0;right=0;fontStyle=1;overflow=hidden;labelBorderColor=none;fillColor=none;fontColor=#1D3557;strokeColor=#457B9D;" parent="158" vertex="1">
                    <mxGeometry width="30" height="30" as="geometry"/>
                </mxCell>
                <mxCell id="160" value="UniqueID" style="shape=partialRectangle;connectable=0;top=0;left=0;bottom=0;right=0;align=left;spacingLeft=6;fontStyle=5;overflow=hidden;labelBorderColor=none;fillColor=none;fontColor=#1D3557;strokeColor=#457B9D;" parent="158" vertex="1">
                    <mxGeometry x="30" width="150" height="30" as="geometry"/>
                </mxCell>
                <mxCell id="173" value="" style="shape=partialRectangle;collapsible=0;dropTarget=0;pointerEvents=0;top=0;left=0;bottom=0;right=0;points=[[0,0.5],[1,0.5]];portConstraint=eastwest;labelBorderColor=none;fillColor=none;fontColor=#1D3557;strokeColor=#457B9D;" parent="157" vertex="1">
                    <mxGeometry y="60" width="180" height="30" as="geometry"/>
                </mxCell>
                <mxCell id="174" value="FK" style="shape=partialRectangle;connectable=0;top=0;left=0;bottom=0;right=0;fontStyle=0;overflow=hidden;labelBorderColor=none;fillColor=none;fontColor=#1D3557;strokeColor=#457B9D;" parent="173" vertex="1">
                    <mxGeometry width="30" height="30" as="geometry"/>
                </mxCell>
                <mxCell id="175" value="ApplicationID" style="shape=partialRectangle;connectable=0;top=0;left=0;bottom=0;right=0;align=left;spacingLeft=6;fontStyle=0;overflow=hidden;labelBorderColor=none;fillColor=none;fontColor=#1D3557;strokeColor=#457B9D;" parent="173" vertex="1">
                    <mxGeometry x="30" width="150" height="30" as="geometry"/>
                </mxCell>
                <mxCell id="161" value="" style="shape=partialRectangle;collapsible=0;dropTarget=0;pointerEvents=0;top=0;left=0;bottom=0;right=0;points=[[0,0.5],[1,0.5]];portConstraint=eastwest;labelBorderColor=none;fillColor=none;fontColor=#1D3557;strokeColor=#457B9D;" parent="157" vertex="1">
                    <mxGeometry y="90" width="180" height="30" as="geometry"/>
                </mxCell>
                <mxCell id="162" value="" style="shape=partialRectangle;connectable=0;top=0;left=0;bottom=0;right=0;editable=1;overflow=hidden;labelBorderColor=none;fillColor=none;fontColor=#1D3557;strokeColor=#457B9D;" parent="161" vertex="1">
                    <mxGeometry width="30" height="30" as="geometry"/>
                </mxCell>
                <mxCell id="163" value="Name" style="shape=partialRectangle;connectable=0;top=0;left=0;bottom=0;right=0;align=left;spacingLeft=6;overflow=hidden;labelBorderColor=none;fillColor=none;fontColor=#1D3557;strokeColor=#457B9D;" parent="161" vertex="1">
                    <mxGeometry x="30" width="150" height="30" as="geometry"/>
                </mxCell>
                <mxCell id="176" value="" style="fontSize=12;html=1;endArrow=ERzeroToMany;entryX=0;entryY=0.5;entryDx=0;entryDy=0;labelBorderColor=none;exitX=1;exitY=0.5;exitDx=0;exitDy=0;edgeStyle=orthogonalEdgeStyle;fillColor=none;fontColor=#1D3557;strokeColor=#457B9D;labelBackgroundColor=#F1FAEE;endFill=1;startArrow=ERone;startFill=0;" parent="1" source="191" target="173" edge="1">
                    <mxGeometry width="100" height="100" relative="1" as="geometry">
                        <mxPoint x="924" y="345" as="sourcePoint"/>
                        <mxPoint x="267" y="296" as="targetPoint"/>
                    </mxGeometry>
                </mxCell>
                <mxCell id="177" value="Dashboard" style="shape=table;startSize=30;container=1;collapsible=1;childLayout=tableLayout;fixedRows=1;rowLines=0;fontStyle=1;align=center;resizeLast=1;labelBorderColor=none;fillColor=none;fontColor=#1D3557;strokeColor=#457B9D;" parent="1" vertex="1">
                    <mxGeometry x="574" y="284" width="180" height="130" as="geometry"/>
                </mxCell>
                <mxCell id="178" value="" style="shape=partialRectangle;collapsible=0;dropTarget=0;pointerEvents=0;top=0;left=0;bottom=1;right=0;points=[[0,0.5],[1,0.5]];portConstraint=eastwest;labelBorderColor=none;fillColor=none;fontColor=#1D3557;strokeColor=#457B9D;" parent="177" vertex="1">
                    <mxGeometry y="30" width="180" height="30" as="geometry"/>
                </mxCell>
                <mxCell id="179" value="PK" style="shape=partialRectangle;connectable=0;top=0;left=0;bottom=0;right=0;fontStyle=1;overflow=hidden;labelBorderColor=none;fillColor=none;fontColor=#1D3557;strokeColor=#457B9D;" parent="178" vertex="1">
                    <mxGeometry width="30" height="30" as="geometry"/>
                </mxCell>
                <mxCell id="180" value="UniqueID" style="shape=partialRectangle;connectable=0;top=0;left=0;bottom=0;right=0;align=left;spacingLeft=6;fontStyle=5;overflow=hidden;labelBorderColor=none;fillColor=none;fontColor=#1D3557;strokeColor=#457B9D;" parent="178" vertex="1">
                    <mxGeometry x="30" width="150" height="30" as="geometry"/>
                </mxCell>
                <mxCell id="206" value="" style="shape=partialRectangle;collapsible=0;dropTarget=0;pointerEvents=0;top=0;left=0;bottom=0;right=0;points=[[0,0.5],[1,0.5]];portConstraint=eastwest;labelBorderColor=none;fillColor=none;fontColor=#1D3557;strokeColor=#457B9D;" parent="177" vertex="1">
                    <mxGeometry y="60" width="180" height="30" as="geometry"/>
                </mxCell>
                <mxCell id="207" value="FK" style="shape=partialRectangle;connectable=0;top=0;left=0;bottom=0;right=0;fontStyle=0;overflow=hidden;labelBorderColor=none;fillColor=none;fontColor=#1D3557;strokeColor=#457B9D;" parent="206" vertex="1">
                    <mxGeometry width="30" height="30" as="geometry"/>
                </mxCell>
                <mxCell id="208" value="OrganizationID" style="shape=partialRectangle;connectable=0;top=0;left=0;bottom=0;right=0;align=left;spacingLeft=6;fontStyle=0;overflow=hidden;labelBorderColor=none;fillColor=none;fontColor=#1D3557;strokeColor=#457B9D;" parent="206" vertex="1">
                    <mxGeometry x="30" width="150" height="30" as="geometry"/>
                </mxCell>
                <mxCell id="181" value="" style="shape=partialRectangle;collapsible=0;dropTarget=0;pointerEvents=0;top=0;left=0;bottom=0;right=0;points=[[0,0.5],[1,0.5]];portConstraint=eastwest;labelBorderColor=none;fillColor=none;fontColor=#1D3557;strokeColor=#457B9D;" parent="177" vertex="1">
                    <mxGeometry y="90" width="180" height="30" as="geometry"/>
                </mxCell>
                <mxCell id="182" value="" style="shape=partialRectangle;connectable=0;top=0;left=0;bottom=0;right=0;editable=1;overflow=hidden;labelBorderColor=none;fillColor=none;fontColor=#1D3557;strokeColor=#457B9D;" parent="181" vertex="1">
                    <mxGeometry width="30" height="30" as="geometry"/>
                </mxCell>
                <mxCell id="183" value="Name" style="shape=partialRectangle;connectable=0;top=0;left=0;bottom=0;right=0;align=left;spacingLeft=6;overflow=hidden;labelBorderColor=none;fillColor=none;fontColor=#1D3557;strokeColor=#457B9D;" parent="181" vertex="1">
                    <mxGeometry x="30" width="150" height="30" as="geometry"/>
                </mxCell>
                <mxCell id="190" value="Application" style="shape=table;startSize=30;container=1;collapsible=1;childLayout=tableLayout;fixedRows=1;rowLines=0;fontStyle=1;align=center;resizeLast=1;labelBorderColor=none;fillColor=none;fontColor=#1D3557;strokeColor=#457B9D;" parent="1" vertex="1">
                    <mxGeometry x="574" y="-28" width="180" height="190" as="geometry"/>
                </mxCell>
                <mxCell id="191" value="" style="shape=partialRectangle;collapsible=0;dropTarget=0;pointerEvents=0;top=0;left=0;bottom=1;right=0;points=[[0,0.5],[1,0.5]];portConstraint=eastwest;labelBorderColor=none;fillColor=none;fontColor=#1D3557;strokeColor=#457B9D;" parent="190" vertex="1">
                    <mxGeometry y="30" width="180" height="30" as="geometry"/>
                </mxCell>
                <mxCell id="192" value="PK" style="shape=partialRectangle;connectable=0;top=0;left=0;bottom=0;right=0;fontStyle=1;overflow=hidden;labelBorderColor=none;fillColor=none;fontColor=#1D3557;strokeColor=#457B9D;" parent="191" vertex="1">
                    <mxGeometry width="30" height="30" as="geometry"/>
                </mxCell>
                <mxCell id="193" value="UniqueID" style="shape=partialRectangle;connectable=0;top=0;left=0;bottom=0;right=0;align=left;spacingLeft=6;fontStyle=5;overflow=hidden;labelBorderColor=none;fillColor=none;fontColor=#1D3557;strokeColor=#457B9D;" parent="191" vertex="1">
                    <mxGeometry x="30" width="150" height="30" as="geometry"/>
                </mxCell>
                <mxCell id="227" value="" style="shape=partialRectangle;collapsible=0;dropTarget=0;pointerEvents=0;top=0;left=0;bottom=0;right=0;points=[[0,0.5],[1,0.5]];portConstraint=eastwest;fillColor=none;fontColor=#1D3557;strokeColor=#457B9D;" parent="190" vertex="1">
                    <mxGeometry y="60" width="180" height="30" as="geometry"/>
                </mxCell>
                <mxCell id="228" value="FK" style="shape=partialRectangle;connectable=0;top=0;left=0;bottom=0;right=0;fontStyle=0;overflow=hidden;fillColor=none;fontColor=#1D3557;strokeColor=#457B9D;" parent="227" vertex="1">
                    <mxGeometry width="30" height="30" as="geometry"/>
                </mxCell>
                <mxCell id="229" value="OrganizationID" style="shape=partialRectangle;connectable=0;top=0;left=0;bottom=0;right=0;align=left;spacingLeft=6;fontStyle=0;overflow=hidden;fillColor=none;fontColor=#1D3557;strokeColor=#457B9D;" parent="227" vertex="1">
                    <mxGeometry x="30" width="150" height="30" as="geometry"/>
                </mxCell>
                <mxCell id="338" value="" style="shape=partialRectangle;collapsible=0;dropTarget=0;pointerEvents=0;top=0;left=0;bottom=0;right=0;points=[[0,0.5],[1,0.5]];portConstraint=eastwest;fillColor=none;fontColor=#1D3557;strokeColor=#457B9D;" parent="190" vertex="1">
                    <mxGeometry y="90" width="180" height="30" as="geometry"/>
                </mxCell>
                <mxCell id="339" value="FK" style="shape=partialRectangle;connectable=0;top=0;left=0;bottom=0;right=0;fontStyle=0;overflow=hidden;fillColor=none;fontColor=#1D3557;strokeColor=#457B9D;" parent="338" vertex="1">
                    <mxGeometry width="30" height="30" as="geometry"/>
                </mxCell>
                <mxCell id="340" value="PlatformID" style="shape=partialRectangle;connectable=0;top=0;left=0;bottom=0;right=0;align=left;spacingLeft=6;fontStyle=0;overflow=hidden;fillColor=none;fontColor=#1D3557;strokeColor=#457B9D;" parent="338" vertex="1">
                    <mxGeometry x="30" width="150" height="30" as="geometry"/>
                </mxCell>
                <mxCell id="194" value="" style="shape=partialRectangle;collapsible=0;dropTarget=0;pointerEvents=0;top=0;left=0;bottom=0;right=0;points=[[0,0.5],[1,0.5]];portConstraint=eastwest;labelBorderColor=none;fillColor=none;fontColor=#1D3557;strokeColor=#457B9D;" parent="190" vertex="1">
                    <mxGeometry y="120" width="180" height="30" as="geometry"/>
                </mxCell>
                <mxCell id="195" value="" style="shape=partialRectangle;connectable=0;top=0;left=0;bottom=0;right=0;editable=1;overflow=hidden;labelBorderColor=none;fillColor=none;fontColor=#1D3557;strokeColor=#457B9D;" parent="194" vertex="1">
                    <mxGeometry width="30" height="30" as="geometry"/>
                </mxCell>
                <mxCell id="196" value="Name" style="shape=partialRectangle;connectable=0;top=0;left=0;bottom=0;right=0;align=left;spacingLeft=6;overflow=hidden;labelBorderColor=none;fillColor=none;fontColor=#1D3557;strokeColor=#457B9D;" parent="194" vertex="1">
                    <mxGeometry x="30" width="150" height="30" as="geometry"/>
                </mxCell>
                <mxCell id="200" value="" style="shape=partialRectangle;collapsible=0;dropTarget=0;pointerEvents=0;top=0;left=0;bottom=0;right=0;points=[[0,0.5],[1,0.5]];portConstraint=eastwest;labelBorderColor=none;fillColor=none;fontColor=#1D3557;strokeColor=#457B9D;" parent="190" vertex="1">
                    <mxGeometry y="150" width="180" height="30" as="geometry"/>
                </mxCell>
                <mxCell id="201" value="" style="shape=partialRectangle;connectable=0;top=0;left=0;bottom=0;right=0;editable=1;overflow=hidden;labelBorderColor=none;fillColor=none;fontColor=#1D3557;strokeColor=#457B9D;" parent="200" vertex="1">
                    <mxGeometry width="30" height="30" as="geometry"/>
                </mxCell>
                <mxCell id="202" value="SecurityToken" style="shape=partialRectangle;connectable=0;top=0;left=0;bottom=0;right=0;align=left;spacingLeft=6;overflow=hidden;labelBorderColor=none;fillColor=none;fontColor=#1D3557;strokeColor=#457B9D;" parent="200" vertex="1">
                    <mxGeometry x="30" width="150" height="30" as="geometry"/>
                </mxCell>
                <mxCell id="209" value="" style="edgeStyle=elbowEdgeStyle;fontSize=12;html=1;endArrow=ERoneToMany;entryX=0;entryY=0.5;entryDx=0;entryDy=0;exitX=1;exitY=0.5;exitDx=0;exitDy=0;labelBorderColor=none;fillColor=none;fontColor=#1D3557;strokeColor=#457B9D;labelBackgroundColor=#F1FAEE;startArrow=ERone;startFill=0;" parent="1" source="4" target="206" edge="1">
                    <mxGeometry width="100" height="100" relative="1" as="geometry">
                        <mxPoint x="344" y="265" as="sourcePoint"/>
                        <mxPoint x="344" y="533" as="targetPoint"/>
                        <Array as="points">
                            <mxPoint x="505" y="275"/>
                            <mxPoint x="552" y="315"/>
                            <mxPoint x="445" y="149"/>
                        </Array>
                    </mxGeometry>
                </mxCell>
                <mxCell id="255" value="Tile" style="shape=table;startSize=30;container=1;collapsible=1;childLayout=tableLayout;fixedRows=1;rowLines=0;fontStyle=1;align=center;resizeLast=1;labelBorderColor=none;fillColor=none;fontColor=#1D3557;strokeColor=#457B9D;" parent="1" vertex="1">
                    <mxGeometry x="884" y="359.25" width="180" height="129.75006103515625" as="geometry"/>
                </mxCell>
                <mxCell id="256" value="" style="shape=partialRectangle;collapsible=0;dropTarget=0;pointerEvents=0;top=0;left=0;bottom=1;right=0;points=[[0,0.5],[1,0.5]];portConstraint=eastwest;labelBorderColor=none;fillColor=none;fontColor=#1D3557;strokeColor=#457B9D;" parent="255" vertex="1">
                    <mxGeometry y="30" width="180" height="30" as="geometry"/>
                </mxCell>
                <mxCell id="257" value="PK" style="shape=partialRectangle;connectable=0;top=0;left=0;bottom=0;right=0;fontStyle=1;overflow=hidden;labelBorderColor=none;fillColor=none;fontColor=#1D3557;strokeColor=#457B9D;" parent="256" vertex="1">
                    <mxGeometry width="30" height="30" as="geometry"/>
                </mxCell>
                <mxCell id="258" value="UniqueID" style="shape=partialRectangle;connectable=0;top=0;left=0;bottom=0;right=0;align=left;spacingLeft=6;fontStyle=5;overflow=hidden;labelBorderColor=none;fillColor=none;fontColor=#1D3557;strokeColor=#457B9D;" parent="256" vertex="1">
                    <mxGeometry x="30" width="150" height="30" as="geometry"/>
                </mxCell>
                <mxCell id="259" value="" style="shape=partialRectangle;collapsible=0;dropTarget=0;pointerEvents=0;top=0;left=0;bottom=0;right=0;points=[[0,0.5],[1,0.5]];portConstraint=eastwest;labelBorderColor=none;fillColor=none;fontColor=#1D3557;strokeColor=#457B9D;" parent="255" vertex="1">
                    <mxGeometry y="60" width="180" height="30" as="geometry"/>
                </mxCell>
                <mxCell id="260" value="FK" style="shape=partialRectangle;connectable=0;top=0;left=0;bottom=0;right=0;fontStyle=0;overflow=hidden;labelBorderColor=none;fillColor=none;fontColor=#1D3557;strokeColor=#457B9D;" parent="259" vertex="1">
                    <mxGeometry width="30" height="30" as="geometry"/>
                </mxCell>
                <mxCell id="261" value="DashboardID" style="shape=partialRectangle;connectable=0;top=0;left=0;bottom=0;right=0;align=left;spacingLeft=6;fontStyle=0;overflow=hidden;labelBorderColor=none;fillColor=none;fontColor=#1D3557;strokeColor=#457B9D;" parent="259" vertex="1">
                    <mxGeometry x="30" width="150" height="30" as="geometry"/>
                </mxCell>
                <mxCell id="421" value="" style="shape=partialRectangle;collapsible=0;dropTarget=0;pointerEvents=0;fillColor=none;top=0;left=0;bottom=0;right=0;points=[[0,0.5],[1,0.5]];portConstraint=eastwest;rounded=0;sketch=0;fontColor=#1D3557;strokeColor=#457B9D;" parent="255" vertex="1">
                    <mxGeometry y="90" width="180" height="30" as="geometry"/>
                </mxCell>
                <mxCell id="422" value="" style="shape=partialRectangle;connectable=0;fillColor=none;top=0;left=0;bottom=0;right=0;editable=1;overflow=hidden;strokeColor=#457B9D;fontColor=#1D3557;" parent="421" vertex="1">
                    <mxGeometry width="30" height="30" as="geometry"/>
                </mxCell>
                <mxCell id="423" value="Name" style="shape=partialRectangle;connectable=0;fillColor=none;top=0;left=0;bottom=0;right=0;align=left;spacingLeft=6;overflow=hidden;strokeColor=#457B9D;fontColor=#1D3557;" parent="421" vertex="1">
                    <mxGeometry x="30" width="150" height="30" as="geometry"/>
                </mxCell>
                <mxCell id="272" value="" style="edgeStyle=elbowEdgeStyle;fontSize=12;html=1;endArrow=ERzeroToMany;entryX=0;entryY=0.5;entryDx=0;entryDy=0;exitX=1;exitY=0.5;exitDx=0;exitDy=0;labelBorderColor=none;fillColor=none;fontColor=#1D3557;strokeColor=#457B9D;labelBackgroundColor=#F1FAEE;startArrow=ERone;startFill=0;endFill=1;" parent="1" source="178" target="259" edge="1">
                    <mxGeometry width="100" height="100" relative="1" as="geometry">
                        <mxPoint x="705" y="137" as="sourcePoint"/>
                        <mxPoint x="758.0000000000002" y="-87.00000000000011" as="targetPoint"/>
                        <Array as="points">
                            <mxPoint x="821" y="358"/>
                            <mxPoint x="797" y="371"/>
                            <mxPoint x="771" y="353"/>
                            <mxPoint x="785" y="297"/>
                        </Array>
                    </mxGeometry>
                </mxCell>
                <mxCell id="289" value="" style="edgeStyle=elbowEdgeStyle;fontSize=12;html=1;endArrow=ERzeroToMany;entryX=0;entryY=0.5;entryDx=0;entryDy=0;exitX=1;exitY=0.5;exitDx=0;exitDy=0;labelBorderColor=none;fillColor=none;fontColor=#1D3557;strokeColor=#457B9D;labelBackgroundColor=#F1FAEE;startArrow=ERone;startFill=0;endFill=1;" parent="1" source="4" target="227" edge="1">
                    <mxGeometry width="100" height="100" relative="1" as="geometry">
                        <mxPoint x="539" y="376" as="sourcePoint"/>
                        <mxPoint x="592" y="152" as="targetPoint"/>
                        <Array as="points">
                            <mxPoint x="506" y="119"/>
                            <mxPoint x="524" y="114"/>
                            <mxPoint x="505" y="269"/>
                            <mxPoint x="526" y="266"/>
                            <mxPoint x="555" y="283"/>
                        </Array>
                    </mxGeometry>
                </mxCell>
                <mxCell id="291" value="Role" style="shape=table;startSize=30;container=1;collapsible=1;childLayout=tableLayout;fixedRows=1;rowLines=0;fontStyle=1;align=center;resizeLast=1;labelBorderColor=none;fillColor=none;fontColor=#1D3557;strokeColor=#457B9D;" parent="1" vertex="1">
                    <mxGeometry x="256" y="419" width="180" height="130" as="geometry"/>
                </mxCell>
                <mxCell id="292" value="" style="shape=partialRectangle;collapsible=0;dropTarget=0;pointerEvents=0;top=0;left=0;bottom=1;right=0;points=[[0,0.5],[1,0.5]];portConstraint=eastwest;labelBorderColor=none;fillColor=none;fontColor=#1D3557;strokeColor=#457B9D;" parent="291" vertex="1">
                    <mxGeometry y="30" width="180" height="30" as="geometry"/>
                </mxCell>
                <mxCell id="293" value="PK" style="shape=partialRectangle;connectable=0;top=0;left=0;bottom=0;right=0;fontStyle=1;overflow=hidden;labelBorderColor=none;fillColor=none;fontColor=#1D3557;strokeColor=#457B9D;" parent="292" vertex="1">
                    <mxGeometry width="30" height="30" as="geometry"/>
                </mxCell>
                <mxCell id="294" value="UniqueID" style="shape=partialRectangle;connectable=0;top=0;left=0;bottom=0;right=0;align=left;spacingLeft=6;fontStyle=5;overflow=hidden;labelBorderColor=none;fillColor=none;fontColor=#1D3557;strokeColor=#457B9D;" parent="292" vertex="1">
                    <mxGeometry x="30" width="150" height="30" as="geometry"/>
                </mxCell>
                <mxCell id="298" value="" style="shape=partialRectangle;collapsible=0;dropTarget=0;pointerEvents=0;top=0;left=0;bottom=0;right=0;points=[[0,0.5],[1,0.5]];portConstraint=eastwest;labelBorderColor=none;fillColor=none;fontColor=#1D3557;strokeColor=#457B9D;" parent="291" vertex="1">
                    <mxGeometry y="60" width="180" height="30" as="geometry"/>
                </mxCell>
                <mxCell id="299" value="" style="shape=partialRectangle;connectable=0;top=0;left=0;bottom=0;right=0;editable=1;overflow=hidden;labelBorderColor=none;fillColor=none;fontColor=#1D3557;strokeColor=#457B9D;" parent="298" vertex="1">
                    <mxGeometry width="30" height="30" as="geometry"/>
                </mxCell>
                <mxCell id="300" value="Name" style="shape=partialRectangle;connectable=0;top=0;left=0;bottom=0;right=0;align=left;spacingLeft=6;overflow=hidden;labelBorderColor=none;fillColor=none;fontColor=#1D3557;strokeColor=#457B9D;" parent="298" vertex="1">
                    <mxGeometry x="30" width="150" height="30" as="geometry"/>
                </mxCell>
                <mxCell id="301" value="" style="shape=partialRectangle;collapsible=0;dropTarget=0;pointerEvents=0;top=0;left=0;bottom=0;right=0;points=[[0,0.5],[1,0.5]];portConstraint=eastwest;labelBorderColor=none;fillColor=none;fontColor=#1D3557;strokeColor=#457B9D;" parent="291" vertex="1">
                    <mxGeometry y="90" width="180" height="30" as="geometry"/>
                </mxCell>
                <mxCell id="302" value="" style="shape=partialRectangle;connectable=0;top=0;left=0;bottom=0;right=0;editable=1;overflow=hidden;labelBorderColor=none;fillColor=none;fontColor=#1D3557;strokeColor=#457B9D;" parent="301" vertex="1">
                    <mxGeometry width="30" height="30" as="geometry"/>
                </mxCell>
                <mxCell id="303" value="Description" style="shape=partialRectangle;connectable=0;top=0;left=0;bottom=0;right=0;align=left;spacingLeft=6;overflow=hidden;labelBorderColor=none;fillColor=none;fontColor=#1D3557;strokeColor=#457B9D;" parent="301" vertex="1">
                    <mxGeometry x="30" width="150" height="30" as="geometry"/>
                </mxCell>
                <mxCell id="310" value="" style="edgeStyle=orthogonalEdgeStyle;fontSize=12;html=1;endArrow=ERzeroToMany;exitX=0;exitY=0.5;exitDx=0;exitDy=0;entryX=1;entryY=0.5;entryDx=0;entryDy=0;labelBorderColor=none;fillColor=none;fontColor=#1D3557;strokeColor=#457B9D;labelBackgroundColor=#F1FAEE;endFill=1;startArrow=ERone;startFill=0;" parent="1" source="292" target="307" edge="1">
                    <mxGeometry width="100" height="100" relative="1" as="geometry">
                        <mxPoint x="83.99999999999977" y="693" as="sourcePoint"/>
                        <mxPoint x="218" y="716" as="targetPoint"/>
                    </mxGeometry>
                </mxCell>
                <mxCell id="321" value="Platform" style="shape=table;startSize=30;container=1;collapsible=1;childLayout=tableLayout;fixedRows=1;rowLines=0;fontStyle=1;align=center;resizeLast=1;labelBorderColor=none;fillColor=none;fontColor=#1D3557;strokeColor=#457B9D;" parent="1" vertex="1">
                    <mxGeometry x="889" y="124" width="180" height="130" as="geometry"/>
                </mxCell>
                <mxCell id="322" value="" style="shape=partialRectangle;collapsible=0;dropTarget=0;pointerEvents=0;top=0;left=0;bottom=1;right=0;points=[[0,0.5],[1,0.5]];portConstraint=eastwest;labelBorderColor=none;fillColor=none;fontColor=#1D3557;strokeColor=#457B9D;" parent="321" vertex="1">
                    <mxGeometry y="30" width="180" height="30" as="geometry"/>
                </mxCell>
                <mxCell id="323" value="PK" style="shape=partialRectangle;connectable=0;top=0;left=0;bottom=0;right=0;fontStyle=1;overflow=hidden;labelBorderColor=none;fillColor=none;fontColor=#1D3557;strokeColor=#457B9D;" parent="322" vertex="1">
                    <mxGeometry width="30" height="30" as="geometry"/>
                </mxCell>
                <mxCell id="324" value="UniqueID" style="shape=partialRectangle;connectable=0;top=0;left=0;bottom=0;right=0;align=left;spacingLeft=6;fontStyle=5;overflow=hidden;labelBorderColor=none;fillColor=none;fontColor=#1D3557;strokeColor=#457B9D;" parent="322" vertex="1">
                    <mxGeometry x="30" width="150" height="30" as="geometry"/>
                </mxCell>
                <mxCell id="328" value="" style="shape=partialRectangle;collapsible=0;dropTarget=0;pointerEvents=0;top=0;left=0;bottom=0;right=0;points=[[0,0.5],[1,0.5]];portConstraint=eastwest;labelBorderColor=none;fillColor=none;fontColor=#1D3557;strokeColor=#457B9D;" parent="321" vertex="1">
                    <mxGeometry y="60" width="180" height="30" as="geometry"/>
                </mxCell>
                <mxCell id="329" value="" style="shape=partialRectangle;connectable=0;top=0;left=0;bottom=0;right=0;editable=1;overflow=hidden;labelBorderColor=none;fillColor=none;fontColor=#1D3557;strokeColor=#457B9D;" parent="328" vertex="1">
                    <mxGeometry width="30" height="30" as="geometry"/>
                </mxCell>
                <mxCell id="330" value="Name" style="shape=partialRectangle;connectable=0;top=0;left=0;bottom=0;right=0;align=left;spacingLeft=6;overflow=hidden;labelBorderColor=none;fillColor=none;fontColor=#1D3557;strokeColor=#457B9D;" parent="328" vertex="1">
                    <mxGeometry x="30" width="150" height="30" as="geometry"/>
                </mxCell>
                <mxCell id="331" value="" style="shape=partialRectangle;collapsible=0;dropTarget=0;pointerEvents=0;top=0;left=0;bottom=0;right=0;points=[[0,0.5],[1,0.5]];portConstraint=eastwest;labelBorderColor=none;fillColor=none;fontColor=#1D3557;strokeColor=#457B9D;" parent="321" vertex="1">
                    <mxGeometry y="90" width="180" height="30" as="geometry"/>
                </mxCell>
                <mxCell id="332" value="" style="shape=partialRectangle;connectable=0;top=0;left=0;bottom=0;right=0;editable=1;overflow=hidden;labelBorderColor=none;fillColor=none;fontColor=#1D3557;strokeColor=#457B9D;" parent="331" vertex="1">
                    <mxGeometry width="30" height="30" as="geometry"/>
                </mxCell>
                <mxCell id="333" value="AvatarUrl" style="shape=partialRectangle;connectable=0;top=0;left=0;bottom=0;right=0;align=left;spacingLeft=6;overflow=hidden;labelBorderColor=none;fillColor=none;fontColor=#1D3557;strokeColor=#457B9D;" parent="331" vertex="1">
                    <mxGeometry x="30" width="150" height="30" as="geometry"/>
                </mxCell>
                <mxCell id="344" value="" style="fontSize=12;html=1;endArrow=ERzeroToMany;entryX=1;entryY=0.5;entryDx=0;entryDy=0;labelBorderColor=none;exitX=0;exitY=0.5;exitDx=0;exitDy=0;edgeStyle=orthogonalEdgeStyle;fillColor=none;fontColor=#1D3557;strokeColor=#457B9D;labelBackgroundColor=#F1FAEE;startArrow=ERone;startFill=0;endFill=1;" parent="1" source="322" target="338" edge="1">
                    <mxGeometry width="100" height="100" relative="1" as="geometry">
                        <mxPoint x="733.9999999999998" y="278" as="sourcePoint"/>
                        <mxPoint x="882" y="158" as="targetPoint"/>
                    </mxGeometry>
                </mxCell>
                <mxCell id="399" value="ApplicationTeam" style="shape=table;startSize=30;container=1;collapsible=1;childLayout=tableLayout;fixedRows=1;rowLines=0;fontStyle=1;align=center;resizeLast=1;labelBorderColor=none;fillColor=none;fontColor=#1D3557;strokeColor=#457B9D;" parent="1" vertex="1">
                    <mxGeometry x="287" y="-118" width="180" height="130" as="geometry"/>
                </mxCell>
                <mxCell id="418" value="" style="shape=partialRectangle;collapsible=0;dropTarget=0;pointerEvents=0;fillColor=none;top=0;left=0;bottom=1;right=0;points=[[0,0.5],[1,0.5]];portConstraint=eastwest;rounded=0;sketch=0;fontColor=#1D3557;strokeColor=#457B9D;" parent="399" vertex="1">
                    <mxGeometry y="30" width="180" height="30" as="geometry"/>
                </mxCell>
                <mxCell id="419" value="PK" style="shape=partialRectangle;connectable=0;fillColor=none;top=0;left=0;bottom=0;right=0;fontStyle=1;overflow=hidden;strokeColor=#457B9D;fontColor=#1D3557;" parent="418" vertex="1">
                    <mxGeometry width="31.54998779296875" height="30" as="geometry"/>
                </mxCell>
                <mxCell id="420" value="UniqueID" style="shape=partialRectangle;connectable=0;fillColor=none;top=0;left=0;bottom=0;right=0;align=left;spacingLeft=6;fontStyle=5;overflow=hidden;strokeColor=#457B9D;fontColor=#1D3557;" parent="418" vertex="1">
                    <mxGeometry x="31.54998779296875" width="148.45001220703125" height="30" as="geometry"/>
                </mxCell>
                <mxCell id="400" value="" style="shape=partialRectangle;collapsible=0;dropTarget=0;pointerEvents=0;top=0;left=0;bottom=0;right=0;points=[[0,0.5],[1,0.5]];portConstraint=eastwest;labelBorderColor=none;fillColor=none;fontColor=#1D3557;strokeColor=#457B9D;" parent="399" vertex="1">
                    <mxGeometry y="60" width="180" height="30" as="geometry"/>
                </mxCell>
                <mxCell id="401" value="FK" style="shape=partialRectangle;connectable=0;top=0;left=0;bottom=0;right=0;fontStyle=1;overflow=hidden;labelBorderColor=none;fillColor=none;fontColor=#1D3557;strokeColor=#457B9D;" parent="400" vertex="1">
                    <mxGeometry width="31.54998779296875" height="30" as="geometry"/>
                </mxCell>
                <mxCell id="402" value="ApplicationID" style="shape=partialRectangle;connectable=0;top=0;left=0;bottom=0;right=0;align=left;spacingLeft=6;fontStyle=5;overflow=hidden;labelBorderColor=none;fillColor=none;fontColor=#1D3557;strokeColor=#457B9D;" parent="400" vertex="1">
                    <mxGeometry x="31.54998779296875" width="148.45001220703125" height="30" as="geometry"/>
                </mxCell>
                <mxCell id="403" value="" style="shape=partialRectangle;collapsible=0;dropTarget=0;pointerEvents=0;top=0;left=0;bottom=1;right=0;points=[[0,0.5],[1,0.5]];portConstraint=eastwest;labelBorderColor=none;fillColor=none;fontColor=#1D3557;strokeColor=none;" parent="399" vertex="1">
                    <mxGeometry y="90" width="180" height="30" as="geometry"/>
                </mxCell>
                <mxCell id="404" value="FK" style="shape=partialRectangle;connectable=0;top=0;left=0;bottom=0;right=0;fontStyle=1;overflow=hidden;labelBorderColor=none;fillColor=none;fontColor=#1D3557;strokeColor=#457B9D;" parent="403" vertex="1">
                    <mxGeometry width="31.54998779296875" height="30" as="geometry"/>
                </mxCell>
                <mxCell id="405" value="TeamID" style="shape=partialRectangle;connectable=0;top=0;left=0;bottom=0;right=0;align=left;spacingLeft=6;fontStyle=5;overflow=hidden;labelBorderColor=none;fillColor=none;fontColor=#1D3557;strokeColor=#457B9D;" parent="403" vertex="1">
                    <mxGeometry x="31.54998779296875" width="148.45001220703125" height="30" as="geometry"/>
                </mxCell>
                <mxCell id="407" value="" style="edgeStyle=entityRelationEdgeStyle;fontSize=12;html=1;endArrow=ERzeroToMany;labelBorderColor=none;fillColor=none;fontColor=#1D3557;exitX=1;exitY=0.5;exitDx=0;exitDy=0;entryX=0;entryY=0.5;entryDx=0;entryDy=0;strokeColor=#457B9D;labelBackgroundColor=#F1FAEE;startArrow=ERone;startFill=0;endFill=1;" parent="1" source="34" target="400" edge="1">
                    <mxGeometry width="100" height="100" relative="1" as="geometry">
                        <mxPoint x="230" y="-151" as="sourcePoint"/>
                        <mxPoint x="260" y="7" as="targetPoint"/>
                    </mxGeometry>
                </mxCell>
                <mxCell id="408" value="" style="edgeStyle=entityRelationEdgeStyle;fontSize=12;html=1;endArrow=ERoneToMany;labelBorderColor=none;fillColor=none;fontColor=#1D3557;exitX=0;exitY=0.5;exitDx=0;exitDy=0;entryX=1;entryY=0.8;entryDx=0;entryDy=0;entryPerimeter=0;strokeColor=#457B9D;labelBackgroundColor=#F1FAEE;startArrow=ERone;startFill=0;" parent="1" source="191" target="403" edge="1">
                    <mxGeometry width="100" height="100" relative="1" as="geometry">
                        <mxPoint x="519" y="-146" as="sourcePoint"/>
                        <mxPoint x="627" y="-194" as="targetPoint"/>
                    </mxGeometry>
                </mxCell>
            </root>
        </mxGraphModel>
    </diagram>
</mxfile>